<mxfile host="app.diagrams.net" modified="2021-01-20T08:28:58.078Z" agent="5.0 (Windows NT 10.0; Win64; x64) AppleWebKit/537.36 (KHTML, like Gecko) Chrome/79.0.3945.88 Safari/537.36" etag="r_ncaD0VjAvcwOS6YVRI" version="14.1.9" type="github">
  <diagram id="iega-1R7XgHPMxAMiEmX" name="Page-1">
    <mxGraphModel dx="1178" dy="659" grid="0" gridSize="10" guides="1" tooltips="1" connect="1" arrows="1" fold="1" page="1" pageScale="1" pageWidth="827" pageHeight="1169" math="0" shadow="0">
      <root>
        <mxCell id="0" />
        <mxCell id="1" parent="0" />
        <mxCell id="MCQk73YQ3z74e4xdkgyQ-7" style="edgeStyle=orthogonalEdgeStyle;rounded=0;orthogonalLoop=1;jettySize=auto;html=1;exitX=1;exitY=0.5;exitDx=0;exitDy=0;exitPerimeter=0;entryX=0;entryY=0.5;entryDx=0;entryDy=0;" edge="1" parent="1" source="MCQk73YQ3z74e4xdkgyQ-1" target="MCQk73YQ3z74e4xdkgyQ-6">
          <mxGeometry relative="1" as="geometry" />
        </mxCell>
        <mxCell id="MCQk73YQ3z74e4xdkgyQ-1" value="Kafka" style="strokeWidth=2;html=1;shape=mxgraph.flowchart.direct_data;whiteSpace=wrap;fillColor=#d0cee2;strokeColor=#56517e;" vertex="1" parent="1">
          <mxGeometry x="400" y="285" width="80" height="50" as="geometry" />
        </mxCell>
        <mxCell id="MCQk73YQ3z74e4xdkgyQ-4" style="edgeStyle=orthogonalEdgeStyle;rounded=0;orthogonalLoop=1;jettySize=auto;html=1;exitX=1;exitY=0.5;exitDx=0;exitDy=0;entryX=0;entryY=0.5;entryDx=0;entryDy=0;" edge="1" parent="1" source="MCQk73YQ3z74e4xdkgyQ-2" target="MCQk73YQ3z74e4xdkgyQ-3">
          <mxGeometry relative="1" as="geometry" />
        </mxCell>
        <mxCell id="MCQk73YQ3z74e4xdkgyQ-2" value="sidecar" style="rounded=0;whiteSpace=wrap;html=1;fillColor=#d5e8d4;strokeColor=#82b366;" vertex="1" parent="1">
          <mxGeometry x="70" y="280" width="100" height="60" as="geometry" />
        </mxCell>
        <mxCell id="MCQk73YQ3z74e4xdkgyQ-5" style="edgeStyle=orthogonalEdgeStyle;rounded=0;orthogonalLoop=1;jettySize=auto;html=1;exitX=1;exitY=0.5;exitDx=0;exitDy=0;entryX=0;entryY=0.5;entryDx=0;entryDy=0;entryPerimeter=0;" edge="1" parent="1" source="MCQk73YQ3z74e4xdkgyQ-3" target="MCQk73YQ3z74e4xdkgyQ-1">
          <mxGeometry relative="1" as="geometry" />
        </mxCell>
        <mxCell id="MCQk73YQ3z74e4xdkgyQ-3" value="Jaeger-collection" style="rounded=0;whiteSpace=wrap;html=1;fillColor=#b1ddf0;strokeColor=#10739e;" vertex="1" parent="1">
          <mxGeometry x="240" y="280" width="100" height="60" as="geometry" />
        </mxCell>
        <mxCell id="MCQk73YQ3z74e4xdkgyQ-9" style="edgeStyle=orthogonalEdgeStyle;rounded=0;orthogonalLoop=1;jettySize=auto;html=1;exitX=0.5;exitY=1;exitDx=0;exitDy=0;" edge="1" parent="1" source="MCQk73YQ3z74e4xdkgyQ-6" target="MCQk73YQ3z74e4xdkgyQ-8">
          <mxGeometry relative="1" as="geometry" />
        </mxCell>
        <mxCell id="MCQk73YQ3z74e4xdkgyQ-6" value="Jaeger-ingester" style="rounded=0;whiteSpace=wrap;html=1;fillColor=#b1ddf0;strokeColor=#10739e;" vertex="1" parent="1">
          <mxGeometry x="540" y="285" width="100" height="50" as="geometry" />
        </mxCell>
        <mxCell id="MCQk73YQ3z74e4xdkgyQ-11" style="edgeStyle=orthogonalEdgeStyle;rounded=0;orthogonalLoop=1;jettySize=auto;html=1;exitX=1;exitY=0.5;exitDx=0;exitDy=0;exitPerimeter=0;entryX=0;entryY=0.5;entryDx=0;entryDy=0;" edge="1" parent="1" source="MCQk73YQ3z74e4xdkgyQ-8" target="MCQk73YQ3z74e4xdkgyQ-10">
          <mxGeometry relative="1" as="geometry" />
        </mxCell>
        <mxCell id="MCQk73YQ3z74e4xdkgyQ-13" style="edgeStyle=orthogonalEdgeStyle;rounded=0;orthogonalLoop=1;jettySize=auto;html=1;exitX=0.5;exitY=1;exitDx=0;exitDy=0;exitPerimeter=0;entryX=0.5;entryY=0;entryDx=0;entryDy=0;" edge="1" parent="1" source="MCQk73YQ3z74e4xdkgyQ-8" target="MCQk73YQ3z74e4xdkgyQ-12">
          <mxGeometry relative="1" as="geometry" />
        </mxCell>
        <mxCell id="MCQk73YQ3z74e4xdkgyQ-8" value="ES" style="shape=cylinder3;whiteSpace=wrap;html=1;boundedLbl=1;backgroundOutline=1;size=15;fillColor=#ffcccc;strokeColor=#36393d;" vertex="1" parent="1">
          <mxGeometry x="414" y="395" width="56" height="80" as="geometry" />
        </mxCell>
        <mxCell id="MCQk73YQ3z74e4xdkgyQ-10" value="kibana" style="rounded=0;whiteSpace=wrap;html=1;fillColor=#b1ddf0;strokeColor=#10739e;" vertex="1" parent="1">
          <mxGeometry x="540" y="410" width="100" height="50" as="geometry" />
        </mxCell>
        <mxCell id="MCQk73YQ3z74e4xdkgyQ-15" style="edgeStyle=orthogonalEdgeStyle;rounded=0;orthogonalLoop=1;jettySize=auto;html=1;exitX=0.5;exitY=1;exitDx=0;exitDy=0;entryX=0.5;entryY=0;entryDx=0;entryDy=0;" edge="1" parent="1" source="MCQk73YQ3z74e4xdkgyQ-12" target="MCQk73YQ3z74e4xdkgyQ-14">
          <mxGeometry relative="1" as="geometry" />
        </mxCell>
        <mxCell id="MCQk73YQ3z74e4xdkgyQ-12" value="Jaeger-query" style="rounded=0;whiteSpace=wrap;html=1;fillColor=#b1ddf0;strokeColor=#10739e;" vertex="1" parent="1">
          <mxGeometry x="392" y="520" width="100" height="55" as="geometry" />
        </mxCell>
        <mxCell id="MCQk73YQ3z74e4xdkgyQ-14" value="查询UI" style="rounded=0;whiteSpace=wrap;html=1;fillColor=#b1ddf0;strokeColor=#10739e;" vertex="1" parent="1">
          <mxGeometry x="392" y="610" width="100" height="55" as="geometry" />
        </mxCell>
      </root>
    </mxGraphModel>
  </diagram>
</mxfile>
